<?xml version="1.0" encoding="UTF-8"?>
<svg xmlns="http://www.w3.org/2000/svg" xmlns:xlink="http://www.w3.org/1999/xlink" width="240px" height="237px" viewBox="0 0 240 237" version="1.1">
<g id="surface1">
<path style=" stroke:none;fill-rule:nonzero;fill:rgb(90.980392%,46.27451%,17.647059%);fill-opacity:1;" d="M 113.433594 160.121094 L 126.566406 160.121094 L 126.566406 124.273438 L 159.601562 124.273438 L 159.601562 111.53125 L 126.566406 111.53125 L 126.566406 75.683594 L 113.433594 75.683594 L 113.433594 111.53125 L 80.796875 111.53125 L 80.796875 124.273438 L 113.433594 124.273438 Z M 113.433594 160.121094 "/>
<path style=" stroke:none;fill-rule:nonzero;fill:rgb(78.039216%,12.54902%,21.568627%);fill-opacity:1;" d="M 52.539062 211.898438 L 63.679688 211.898438 L 63.679688 180.035156 L 93.132812 180.035156 L 93.132812 170.078125 L 63.679688 170.078125 L 63.679688 137.816406 L 52.539062 137.816406 L 52.539062 170.078125 L 23.085938 170.078125 L 23.085938 180.035156 L 52.539062 180.035156 Z M 52.539062 211.898438 "/>
<path style=" stroke:none;fill-rule:nonzero;fill:rgb(35.686275%,52.941176%,60.784314%);fill-opacity:1;" d="M 176.320312 96.792969 L 187.460938 96.792969 L 187.460938 64.929688 L 217.3125 64.929688 L 217.3125 55.371094 L 187.460938 55.371094 L 187.460938 23.109375 L 176.320312 23.109375 L 176.320312 55.371094 L 146.867188 55.371094 L 146.867188 64.929688 L 176.320312 64.929688 Z M 176.320312 96.792969 "/>
<path style=" stroke:none;fill-rule:nonzero;fill:rgb(36.078431%,40%,57.254902%);fill-opacity:1;" d="M 115.421875 236.992188 L 124.976562 236.992188 L 124.976562 214.289062 L 145.273438 214.289062 L 145.273438 205.925781 L 124.976562 205.925781 L 124.976562 183.222656 L 115.421875 183.222656 L 115.421875 205.925781 L 95.523438 205.925781 L 95.523438 214.289062 L 115.421875 214.289062 Z M 115.421875 236.992188 "/>
<path style=" stroke:none;fill-rule:nonzero;fill:rgb(92.156863%,56.862745%,16.078431%);fill-opacity:1;" d="M 52.933594 96.792969 L 63.285156 96.792969 L 63.285156 64.53125 L 93.132812 64.53125 L 93.132812 55.371094 L 63.285156 55.371094 L 63.285156 23.109375 L 52.933594 23.109375 L 52.933594 55.371094 L 23.085938 55.371094 L 23.085938 64.53125 L 52.933594 64.53125 Z M 52.933594 96.792969 "/>
<path style=" stroke:none;fill-rule:nonzero;fill:rgb(36.078431%,40%,57.254902%);fill-opacity:1;" d="M 210.148438 144.589844 L 219.703125 144.589844 L 219.703125 122.285156 L 240 122.285156 L 240 113.519531 L 219.703125 113.519531 L 219.703125 91.21875 L 210.148438 91.21875 L 210.148438 113.519531 L 190.25 113.519531 L 190.25 122.285156 L 210.148438 122.285156 Z M 210.148438 144.589844 "/>
<path style=" stroke:none;fill-rule:evenodd;fill:rgb(12.156863%,27.058824%,49.411765%);fill-opacity:1;" d="M 176.320312 211.898438 L 187.460938 211.898438 L 187.460938 180.035156 L 217.3125 180.035156 L 217.3125 170.078125 L 187.460938 170.078125 L 187.460938 137.816406 L 176.320312 137.816406 L 176.320312 170.078125 L 146.867188 170.078125 L 146.867188 180.035156 L 176.320312 180.035156 Z M 176.320312 211.898438 "/>
<path style=" stroke:none;fill-rule:nonzero;fill:rgb(44.313725%,60%,65.098039%);fill-opacity:1;" d="M 143.679688 28.683594 L 143.679688 21.914062 L 123.78125 21.914062 L 123.78125 0.0078125 L 116.617188 0.0078125 L 116.617188 21.914062 L 96.714844 21.914062 L 96.714844 28.683594 L 116.617188 28.683594 L 116.617188 50.589844 L 123.78125 50.589844 L 123.78125 28.683594 Z M 19.902344 142.996094 L 27.066406 142.996094 L 27.066406 121.089844 L 46.964844 121.089844 L 46.964844 114.316406 L 27.066406 114.316406 L 27.066406 92.808594 L 19.902344 92.808594 L 19.902344 114.316406 L 0 114.316406 L 0 121.488281 L 19.902344 121.089844 Z M 19.902344 142.996094 "/>
</g>
</svg>
